<svg width="37" height="35" viewBox="0 0 37 35" fill="none" xmlns="http://www.w3.org/2000/svg">
<path d="M29.0791 29.0517V31.3961C29.0793 31.5376 29.0514 31.6778 28.9973 31.8086C28.9431 31.9394 28.8639 32.0581 28.7637 32.1581C28.6636 32.2582 28.5446 32.3374 28.4138 32.3914C28.283 32.4454 28.1428 32.4731 28.0013 32.4729H25.8457C25.7041 32.4731 25.564 32.4454 25.4331 32.3914C25.3023 32.3374 25.1834 32.2582 25.0833 32.1581C24.9832 32.0581 24.9038 31.9394 24.8496 31.8086C24.7955 31.6778 24.7678 31.5376 24.7679 31.3961V29.0517M12.3764 29.0517V31.3961C12.3765 31.5376 12.3488 31.6778 12.2947 31.8086C12.2405 31.9394 12.1611 32.0581 12.061 32.1581C11.9609 32.2582 11.842 32.3374 11.7112 32.3914C11.5804 32.4454 11.44 32.4731 11.2985 32.4729H9.14292C9.00139 32.4731 8.86122 32.4454 8.73039 32.3914C8.59957 32.3374 8.4807 32.2582 8.38057 32.1581C8.28045 32.0581 8.20104 31.9394 8.14691 31.8086C8.09278 31.6778 8.06504 31.5376 8.06518 31.3961V29.0517" fill="#2B4255"/>
<path d="M31.2337 29.1802H5.90958V5.56931C5.90929 5.20805 5.98028 4.85036 6.11859 4.51663C6.2569 4.18289 6.45971 3.87973 6.71547 3.62459C6.97123 3.36945 7.27492 3.16723 7.60898 3.02972C7.94305 2.89221 8.30094 2.8221 8.6622 2.82326H28.4809C28.8422 2.8221 29.2001 2.89221 29.5341 3.02972C29.8682 3.16723 30.1719 3.36945 30.4276 3.62459C30.6834 3.87973 30.8862 4.18289 31.0245 4.51663C31.1628 4.85036 31.2339 5.20805 31.2337 5.56931V29.1802Z" fill="#F8B84E"/>
<path d="M4.85261 23.6989H32.2917V26.9916H4.85261V23.6989Z" fill="#34485C"/>
<path d="M6.556 8.42189H18.4097V19.3975H6.556V8.42189ZM18.7916 8.42189H30.3731V19.3975H18.7916V8.42189Z" fill="#4BBFEB"/>
<path fill-rule="evenodd" clip-rule="evenodd" d="M5.90958 7.66353V8.7611H31.2237V7.66353H5.90958ZM5.90958 18.9772V20.0748H31.2523V18.9772H5.90958Z" fill="#34485C"/>
<path fill-rule="evenodd" clip-rule="evenodd" d="M7.73479 21.1328V22.2304H11.0275V21.1328H7.73479ZM26.0553 21.1328V22.2304H29.348V21.1328H26.0553Z" fill="#F05542"/>
<path fill-rule="evenodd" clip-rule="evenodd" d="M18.0234 8.11344V19.4184H19.1209V8.11344H18.0234Z" fill="#34485C"/>
<path fill-rule="evenodd" clip-rule="evenodd" d="M3.20627 9.82463V14.4157H4.30383V10.9222H5.95018V9.82463H3.20627ZM31.1941 9.82463V10.9222H32.8405V14.4157H33.938V9.82463H31.1941Z" fill="#576D7E"/>
<path fill-rule="evenodd" clip-rule="evenodd" d="M5.90958 8.11344V19.4184H7.00714V8.11344H5.90958ZM30.1547 8.11344V19.4184H31.2523V8.11344H30.1547Z" fill="#34485C"/>
</svg>
