<svg width="31" height="24" viewBox="0 0 31 24" fill="none" xmlns="http://www.w3.org/2000/svg">
<path fill-rule="evenodd" clip-rule="evenodd" d="M6.6095 10H4.6095V0H6.6095V10ZM4.6095 24H6.6095V18H4.6095V24ZM14.6095 24H16.6095V12H14.6095V24ZM24.6095 24H26.6095V20H24.6095V24ZM26.6095 0H24.6095V12H26.6095V0ZM16.6095 0H14.6095V4H16.6095V0ZM8.6095 12H2.6095C1.5095 12 0.609497 12.9 0.609497 14C0.609497 15.1 1.5095 16 2.6095 16H8.6095C9.7095 16 10.6095 15.1 10.6095 14C10.6095 12.9 9.7095 12 8.6095 12ZM18.6095 6H12.6095C11.5095 6 10.6095 6.9 10.6095 8C10.6095 9.1 11.5095 10 12.6095 10H18.6095C19.7095 10 20.6095 9.1 20.6095 8C20.6095 6.9 19.7095 6 18.6095 6ZM28.6095 14H22.6095C21.5095 14 20.6095 14.9 20.6095 16C20.6095 17.1 21.5095 18 22.6095 18H28.6095C29.7095 18 30.6095 17.1 30.6095 16C30.6095 14.9 29.7095 14 28.6095 14Z" fill="black"/>
</svg>
